<svg width="34" height="34" viewBox="0 0 34 34" fill="none" xmlns="http://www.w3.org/2000/svg">
<circle cx="17" cy="17" r="16" fill="white" stroke="#8f9297" stroke-width="2"/>
<path d="M22.8594 25H11.6797V23.4414L17.5859 16.8789C18.4609 15.8867 19.0625 15.082 19.3906 14.4648C19.7266 13.8398 19.8945 13.1953 19.8945 12.5312C19.8945 11.6406 19.625 10.9102 19.0859 10.3398C18.5469 9.76953 17.8281 9.48438 16.9297 9.48438C15.8516 9.48438 15.0117 9.79297 14.4102 10.4102C13.8164 11.0195 13.5195 11.8711 13.5195 12.9648H11.3516C11.3516 11.3945 11.8555 10.125 12.8633 9.15625C13.8789 8.1875 15.2344 7.70312 16.9297 7.70312C18.5156 7.70312 19.7695 8.12109 20.6914 8.95703C21.6133 9.78516 22.0742 10.8906 22.0742 12.2734C22.0742 13.9531 21.0039 15.9531 18.8633 18.2734L14.293 23.2305H22.8594V25Z" fill="#8f9297"/>
</svg>
